<svg width="1831" height="307" viewBox="0 0 1831 307" fill="none" xmlns="http://www.w3.org/2000/svg">
<g clip-path="url(#clip0_132_204)">
<path d="M234.465 87.1055L235.292 87.426C236.977 90.684 233.54 110.318 232.845 115.109C241.321 100.342 251.265 90.9712 268.83 88.4162C286.293 85.8809 304.049 90.3859 318.195 100.942C334.295 113.011 343.997 132.009 346.566 151.676C349.256 175.228 347.638 203.452 332.148 222.884C307.825 253.399 266.732 257.741 236.307 234.787C236.12 244.443 235.862 258.087 236.819 267.421C241.562 284.328 246.056 286.858 262.89 288.871C263.236 294.043 264.372 301.213 261.403 305.443C256.545 308.366 179.921 306.357 169.003 305.927C164.842 305.763 166.308 292.473 166.509 289.034C179.608 287.215 187.454 286.295 191.12 271.564C193.614 261.504 193.349 250.94 193.22 240.586C192.811 207.685 194.141 174.421 192.598 141.575C191.826 125.125 187.069 120.802 171.901 117.243C171.3 105.889 168.297 99.0942 181.276 99.7065C200.943 100.636 216.858 95.2177 234.465 87.1055ZM236.265 133.842L236.123 166.153C236.084 180.024 235.021 193.288 240.351 206.381C247.715 224.472 261.025 231.189 279.929 228.045C311.219 220.083 311.486 177.638 305.437 152.262C300.723 132.487 287.897 115.494 265.964 114.486C250.841 115.586 243.467 120.255 236.265 133.842Z" fill="white"/>
<path d="M769.463 0L770.766 0.257119C771.905 2.1128 771.432 92.2578 771.435 102.297C789.911 83.3681 818.926 85.0595 841.517 95.0067C890.286 116.483 896.209 192.815 860.184 228.094C851.398 236.698 842.863 241.134 831.454 245.272C803.086 253.783 761.526 249.937 742.057 224.95C726.216 204.618 728.509 178.588 728.571 154.344L728.742 91.9444C728.765 80.322 729.552 65.0672 723.407 54.7914C719.554 48.3499 714.093 47.9478 707.088 46.3659C706.874 41.421 707.043 35.3961 707.06 30.3615C735.665 20.4241 744.23 16.7164 769.463 0ZM824.117 225.174C857.81 202.111 850.528 107.563 788.379 115.337C781.454 116.895 777.486 118.516 771.41 122.537C771.342 146.677 769.795 176.806 773.084 200.5C776.403 224.401 801.875 235.53 824.117 225.174Z" fill="white"/>
<path d="M1122.21 89.8016C1165.56 82.4076 1206.72 111.462 1214.29 154.791C1221.86 198.12 1192.98 239.415 1149.7 247.162C1106.16 254.953 1064.59 225.864 1056.98 182.285C1049.36 138.705 1078.61 97.2378 1122.21 89.8016ZM1148.78 224.403C1208.6 213.214 1163.47 110.891 1122.85 112.672C1063.57 120.822 1105.77 226.649 1148.78 224.403Z" fill="white"/>
<path d="M67.6184 89.7793C111.04 82.4859 152.169 111.73 159.554 155.148C166.938 198.567 137.791 239.77 94.4013 247.25C50.88 254.752 9.53645 225.489 2.12926 181.938C-5.27788 138.389 24.0652 97.0961 67.6184 89.7793ZM93.5433 224.467C153.879 213.433 109.241 110.843 67.48 112.701C9.85094 121.081 49.8272 225.145 93.5433 224.467Z" fill="white"/>
<path d="M1417 196.591C1421.91 184.534 1449.29 124.508 1446.67 114.385C1444.88 107.443 1436.51 111.691 1432.21 109.184C1429.61 105.981 1429.05 96.1793 1431.19 93.1826C1436.46 90.7523 1463.55 91.6932 1471.16 91.7488C1476.15 91.6599 1492.47 90.1912 1495.5 94.3137C1500.26 119.114 1481.15 104.461 1474.92 117.28C1454.61 159.07 1437.77 202.749 1418.51 245.087C1410.19 245.38 1403.08 245.313 1394.81 245.111C1391.34 239.196 1384.16 221.396 1381.16 214.408C1371.76 192.235 1362.19 170.135 1352.45 148.111L1326.01 209.455C1321.37 220.227 1315.53 234.93 1310.17 245.107C1280.32 246.117 1285.99 244.663 1274.46 217.745L1247.09 153.921C1241.91 141.866 1236.16 126.594 1229.11 115.649C1225.61 110.218 1220.25 110.348 1213.93 109.389C1213.45 103.564 1212.74 97.3993 1214.8 91.8727C1224.19 91.782 1284.4 90.4507 1288.37 92.1079C1291.1 93.2445 1293.21 95.1549 1294.3 97.9344C1295.19 100.208 1295.25 102.71 1294.26 104.967C1290.98 112.45 1287.12 109.296 1281.33 111.813C1279.87 112.448 1279.03 113.485 1278.48 114.935C1274.92 124.305 1303.6 184.438 1309.05 196.578C1314.11 183.683 1343.94 119.568 1337.31 111.407C1332.13 108.82 1327.28 112.885 1322.67 108.409C1321.35 103.051 1321.19 96.1622 1325.37 92.2058C1328.95 90.8582 1398.24 91.0818 1401.95 92.4877C1403.35 93.0183 1403.57 93.4097 1404.15 94.7689C1405.26 97.3571 1406.47 102.273 1405.32 105.003C1402.93 110.663 1395.44 109.747 1390.54 111.794C1388.72 112.554 1387.27 113.795 1386.58 115.689C1383.09 125.269 1411.41 183.807 1417 196.591Z" fill="white"/>
<path d="M590.708 82.6406L591.689 82.7843C593.224 85.4264 587.928 117.577 587.135 123.098C602.825 98.7241 620.461 84.6292 650.427 88.2813C690.397 93.1525 692.743 124.12 692.583 156.739L692.374 191.374C692.317 202.744 691.387 220.84 704.84 225.425C708.297 226.602 714.824 227.053 718.742 227.488C719.137 232.476 720.857 244.875 715.152 244.701C700.535 244.256 640.127 247.668 630.058 244.413C616.788 228.014 643.81 225.836 645.479 220.553C651.692 200.9 651.565 148.502 647.84 129.801C637.33 98.5885 602.211 120.083 590.151 139.93C588.762 160.071 589.846 184.31 590.54 204.502C591.108 220.976 600.724 225.678 614.516 227.575C614.752 232.554 615.608 239.709 613.335 243.963C607.745 247.378 534.349 244.299 522.893 245.071C518.156 245.588 518.518 234.996 519.543 232.657C524.435 221.504 543.301 228.042 545.164 210.472C547.679 186.763 550.591 153.519 541.591 131.193C539.304 125.522 530.147 123.897 525.296 122.794C525.072 118.134 523.474 106.799 528.753 105.778C552.756 101.132 569.146 95.5882 590.708 82.6406Z" fill="white"/>
<path d="M428.624 88.4196C458.199 86.1689 480.688 95.6646 495.438 123.246C499.036 129.974 503.929 141.286 501.573 148.804C497.28 153.681 421.151 185.734 410.498 190.414C424.186 220.413 453.602 234.671 483.64 213.956C487.019 211.626 493.808 203.36 496.843 199.995C499.828 199.169 499.424 199.634 502.818 200.924C506.162 202.769 509.602 204.998 512.863 207.026C480.567 277.689 379.464 254.732 367.488 183.807C359.443 136.159 379.057 97.5598 428.624 88.4196ZM406.77 171.228L423.952 162.697L456.255 146.279C455.197 128.779 449.517 112.907 429.263 112.778C402.432 116.94 400.138 150.549 406.77 171.228Z" fill="white"/>
<path d="M1719.42 88.4783C1747.64 85.9466 1768.99 94.9251 1784.41 119.888C1788.51 126.519 1794.3 141.322 1792.33 148.906C1789.21 152.841 1711.72 185.755 1701.19 190.456C1715 221.444 1745.34 234.087 1774.69 213.751C1777.63 211.719 1784.55 203.064 1788 199.76C1791.18 199.398 1790.91 199.874 1794.18 201.397C1807.25 208.037 1801.63 212.631 1794.2 223.028C1784.45 236.57 1769.71 245.672 1753.23 248.322C1644.41 266.06 1618.53 104.553 1719.42 88.4783ZM1697.35 171.181L1715.4 162.248L1747.3 146.146C1745.21 130.039 1740.54 112.231 1720.44 112.71C1692.77 116.843 1691.1 149.742 1697.35 171.181Z" fill="white"/>
<path d="M1604.18 86.7463C1607.67 86.7347 1612.03 87.1432 1615.58 87.3793C1619.93 95.5642 1630.12 123.659 1633.94 133.519C1628.67 137.009 1625.65 138.551 1619.92 141.278C1602.68 121.366 1587.07 106.786 1558.8 106.835C1549.05 106.851 1539.05 112.509 1540.7 123.344C1543.98 144.818 1583.55 145.061 1599.4 152.198C1611.19 157.192 1620.62 159.271 1630.33 168.163C1638.51 175.203 1643.23 184.515 1643.81 195.297C1646.23 240.677 1595.51 256.589 1558.91 246.479C1554.29 245.203 1543.98 240.383 1540.11 240.632L1539.07 241.998L1539.88 246.786C1537.17 253.382 1531.45 251.056 1526.14 249.524C1520.42 247.876 1520.01 246.346 1517.44 241.162C1512.91 232.798 1495.1 201.361 1493.5 194.091C1495.33 189.099 1503.41 185.982 1508.39 183.385C1529.99 213.878 1557.33 236.193 1598.61 225.968C1602.67 224.96 1607.13 221.261 1608.89 217.357C1610.53 213.732 1610.64 209.604 1609.21 205.895C1602.69 188.65 1557.44 183.259 1538.06 174.78C1508.83 165.006 1493.19 128.19 1515.51 103.416C1537.77 78.7087 1576.79 87.9188 1601.48 99.1633C1600.68 95.7527 1599.9 93.0325 1600.02 89.5043C1601.46 87.0552 1600.94 87.7671 1604.18 86.7463Z" fill="white"/>
<path d="M965.274 82.6328L966.746 82.8573C968.056 86.5058 961.343 118.04 960.104 124.33C966.88 110.281 974.994 101.053 988.86 93.8136C1016.78 79.3272 1054.78 89.8948 1048.57 127.85C1046.63 139.758 1037.95 139.668 1028.27 144.284C1023.68 146.467 1012.37 151.255 1007.77 150.562C1005.53 145.398 1018.2 117.797 998.894 114.82C981.294 112.106 964.852 132.611 964.771 148.477C964.691 165.52 964.888 182.865 964.987 199.865C966.602 220.352 972.741 225.103 992.334 227.603C992.576 232.942 993.483 239.417 990.853 243.973C984.49 247.529 910.257 244.483 897.791 244.855C894.299 245.031 892.289 236.079 893.249 233.766C897.512 223.492 918.9 225.52 920.04 210.531C921.844 186.608 925.38 153.109 916.163 130.651C913.982 125.332 904.719 123.806 900.052 122.746C899.846 117.191 900.016 111.859 900.16 106.31C928.53 98.8725 937.478 99.9983 965.274 82.6328Z" fill="white"/>
<path d="M1798.55 0.212961C1814.45 -1.69368 1828.89 9.65433 1830.79 25.5579C1832.7 41.4611 1821.35 55.8957 1805.44 57.7962C1789.54 59.6962 1775.11 48.3493 1773.21 32.4502C1771.31 16.5511 1782.65 2.11904 1798.55 0.212961Z" fill="#056BB3"/>
</g>
<defs>
<clipPath id="clip0_132_204">
<rect width="1831" height="307" fill="white"/>
</clipPath>
</defs>
</svg>
